<?xml version="1.0" encoding="UTF-8"?>
<!DOCTYPE svg PUBLIC "-//W3C//DTD SVG 1.1//EN" "http://www.w3.org/Graphics/SVG/1.1/DTD/svg11.dtd">
<svg xmlns="http://www.w3.org/2000/svg" version="1.1" width="832px" height="994px" style="shape-rendering:geometricPrecision; text-rendering:geometricPrecision; image-rendering:optimizeQuality; fill-rule:evenodd; clip-rule:evenodd" xmlns:xlink="http://www.w3.org/1999/xlink">
<g><path style="opacity:0.973" fill="#24d3b2" d="M 400.5,1.5 C 406.441,38.4203 412.108,75.4203 417.5,112.5C 407.31,112.254 397.143,112.587 387,113.5C 381.333,115.472 375.5,116.639 369.5,117C 362.708,121.107 355.375,124.107 347.5,126C 332.771,135.092 318.938,145.259 306,156.5C 305.517,157.448 305.351,158.448 305.5,159.5C 304.325,159.281 303.325,159.614 302.5,160.5C 298.111,165.324 294.444,170.658 291.5,176.5C 287.625,178.657 285.625,181.657 285.5,185.5C 283.693,186.395 282.36,187.728 281.5,189.5C 279.061,193.492 277.728,197.825 277.5,202.5C 274.387,202.065 273.721,203.065 275.5,205.5C 273.955,207.543 272.621,209.71 271.5,212C 269.92,218.502 268.587,225.002 267.5,231.5C 259.056,176.722 250.056,122.056 240.5,67.5C 246.098,61.3456 251.765,55.1789 257.5,49C 261.132,46.3702 264.465,43.3702 267.5,40C 268.5,39.6667 269.5,39.3333 270.5,39C 269.167,38.3333 269.167,37.6667 270.5,37C 274.5,36.3333 278.5,36.3333 282.5,37C 283.938,38.5686 285.438,40.0686 287,41.5C 287.414,41.0426 287.914,40.7093 288.5,40.5C 295.625,47.7828 302.958,54.7828 310.5,61.5C 321.148,57.5452 331.648,53.2118 342,48.5C 343.825,48.0566 345.658,47.7233 347.5,47.5C 347.333,35.8286 347.5,24.1619 348,12.5C 348.333,12.8333 348.667,13.1667 349,13.5C 349.667,10.8333 350.333,8.16667 351,5.5C 351.333,5.83333 351.667,6.16667 352,6.5C 353.098,5.03251 354.598,4.19917 356.5,4C 356.167,3.66667 355.833,3.33333 355.5,3C 356.833,2.66667 358.167,2.33333 359.5,2C 373.163,1.5001 386.829,1.33343 400.5,1.5 Z"/></g>
<g><path style="opacity:0.978" fill="#22d0b8" d="M 400.5,1.5 C 424.169,1.33337 447.836,1.50003 471.5,2C 473.283,3.73161 475.283,5.23161 477.5,6.5C 478.316,8.28725 479.316,9.95392 480.5,11.5C 481.499,23.4815 481.832,35.4815 481.5,47.5C 492.804,51.0068 503.804,55.0068 514.5,59.5C 515.934,60.2298 517.1,61.2298 518,62.5C 519.067,61.8095 520.234,61.3095 521.5,61C 529.241,52.3123 537.575,44.3123 546.5,37C 550.486,36.5012 554.486,36.3345 558.5,36.5C 558.5,37.5 558.5,38.5 558.5,39.5C 560.854,39.838 563.187,40.338 565.5,41C 578.86,55.6936 593.193,70.027 608.5,84C 607.262,84.69 607.262,85.19 608.5,85.5C 611.97,108.319 615.637,130.985 619.5,153.5C 618.062,155.443 616.396,157.276 614.5,159C 616.066,160.784 617.399,162.784 618.5,165C 618.355,165.772 618.022,166.439 617.5,167C 621.878,169.943 623.878,174.109 623.5,179.5C 627.664,204.151 631.664,228.818 635.5,253.5C 612.5,253.5 589.5,253.5 566.5,253.5C 566.33,252.178 566.663,251.011 567.5,250C 565.925,246.108 564.925,241.941 564.5,237.5C 562.28,235.337 561.947,232.837 563.5,230C 562.113,227.955 560.946,225.788 560,223.5C 559.772,219.173 558.606,215.173 556.5,211.5C 556.709,210.914 557.043,210.414 557.5,210C 555.175,206.527 553.509,202.694 552.5,198.5C 547.993,191.029 543.659,183.362 539.5,175.5C 537.972,174.139 536.305,172.972 534.5,172C 535.451,171.282 535.617,170.449 535,169.5C 530.288,165.954 526.454,161.62 523.5,156.5C 517.508,152.444 512.175,147.611 507.5,142C 501.49,139.327 495.99,135.827 491,131.5C 475.798,122.957 459.631,116.957 442.5,113.5C 434.19,112.628 425.857,112.295 417.5,112.5C 412.108,75.4203 406.441,38.4203 400.5,1.5 Z"/></g>
<g><path style="opacity:0.973" fill="#26d4af" d="M 240.5,67.5 C 250.056,122.056 259.056,176.722 267.5,231.5C 266.113,234.277 264.779,237.11 263.5,240C 264.099,244.568 264.433,249.068 264.5,253.5C 262.5,253.5 260.5,253.5 258.5,253.5C 248.629,194.609 239.296,135.609 230.5,76.5C 233.612,73.302 236.945,70.302 240.5,67.5 Z"/></g>
<g><path style="opacity:0.983" fill="#26d5af" d="M 230.5,76.5 C 239.296,135.609 248.629,194.609 258.5,253.5C 248.167,253.5 237.833,253.5 227.5,253.5C 223.254,223.688 218.254,194.021 212.5,164.5C 212.466,161.801 213.133,159.301 214.5,157C 212.973,155.968 211.64,154.801 210.5,153.5C 208.54,136.777 206.206,120.11 203.5,103.5C 212.167,94.1667 221.167,85.1667 230.5,76.5 Z"/></g>
<g><path style="opacity:0.9" fill="#22cfbb" d="M 608.5,85.5 C 616.261,92.2879 623.427,99.6212 630,107.5C 630.333,107.167 630.667,106.833 631,106.5C 634.704,109.723 637.371,113.723 639,118.5C 639.839,123.921 639.506,129.254 638,134.5C 634.037,139.135 630.037,143.802 626,148.5C 624.242,150.765 622.075,152.432 619.5,153.5C 615.637,130.985 611.97,108.319 608.5,85.5 Z"/></g>
<g><path style="opacity:0.853" fill="#26d5ad" d="M 203.5,103.5 C 206.206,120.11 208.54,136.777 210.5,153.5C 205.506,148.194 199.839,142.86 193.5,137.5C 190.512,130.759 189.845,123.759 191.5,116.5C 195.287,111.887 199.287,107.554 203.5,103.5 Z"/></g>
<g><path style="opacity:0.956" fill="#26d5ad" d="M 212.5,164.5 C 218.254,194.021 223.254,223.688 227.5,253.5C 202.455,253.824 177.455,253.49 152.5,252.5C 151.167,238.5 151.167,224.5 152.5,210.5C 153.315,206.7 154.982,203.367 157.5,200.5C 160.019,198.718 162.685,197.218 165.5,196C 176.828,195.5 188.162,195.333 199.5,195.5C 200.818,191.174 202.151,186.841 203.5,182.5C 204.646,181.855 205.646,181.022 206.5,180C 205.483,178.951 205.316,177.784 206,176.5C 208.669,172.558 210.835,168.558 212.5,164.5 Z"/></g>
<g><path style="opacity:0.925" fill="#21cebc" d="M 623.5,179.5 C 625.549,179.706 625.883,180.539 624.5,182C 627.873,185.783 629.539,190.283 629.5,195.5C 641.518,195.168 653.518,195.501 665.5,196.5C 670.737,198.614 674.404,202.281 676.5,207.5C 674.721,209.935 675.387,210.935 678.5,210.5C 678.5,224.833 678.5,239.167 678.5,253.5C 664.167,253.5 649.833,253.5 635.5,253.5C 631.664,228.818 627.664,204.151 623.5,179.5 Z"/></g>
<g><path style="opacity:0.961" fill="#26d5ac" d="M 232.5,289.5 C 236.49,313.774 240.157,338.107 243.5,362.5C 206.832,362.667 170.165,362.5 133.5,362C 124.337,361.643 117.337,357.643 112.5,350C 111.1,348.562 109.433,347.729 107.5,347.5C 107.716,345.319 106.883,343.653 105,342.5C 104.257,340.559 104.424,338.726 105.5,337C 103.4,333.708 102.067,330.042 101.5,326C 103.197,320.619 104.197,315.119 104.5,309.5C 107.361,309.487 108.361,308.321 107.5,306C 110.113,303.417 112.446,300.584 114.5,297.5C 119.031,294.924 123.697,292.59 128.5,290.5C 163.16,289.5 197.827,289.167 232.5,289.5 Z"/></g>
<g><path style="opacity:0.97" fill="#26d5ae" d="M 232.5,289.5 C 243.167,289.5 253.833,289.5 264.5,289.5C 267.631,313.951 271.298,338.285 275.5,362.5C 264.833,362.5 254.167,362.5 243.5,362.5C 240.157,338.107 236.49,313.774 232.5,289.5 Z"/></g>
<g><path style="opacity:0.972" fill="#26d4af" d="M 264.5,289.5 C 268.167,289.5 271.833,289.5 275.5,289.5C 279.316,313.883 283.316,338.216 287.5,362.5C 283.5,362.5 279.5,362.5 275.5,362.5C 271.298,338.285 267.631,313.951 264.5,289.5 Z"/></g>
<g><path style="opacity:0.97" fill="#24d3b2" d="M 275.5,289.5 C 332.167,289.5 388.833,289.5 445.5,289.5C 449.129,313.902 453.129,338.236 457.5,362.5C 400.833,362.5 344.167,362.5 287.5,362.5C 283.316,338.216 279.316,313.883 275.5,289.5 Z"/></g>
<g><path style="opacity:0.97" fill="#22d0b8" d="M 445.5,289.5 C 510.5,289.5 575.5,289.5 640.5,289.5C 644.49,313.774 648.157,338.107 651.5,362.5C 586.833,362.5 522.167,362.5 457.5,362.5C 453.129,338.236 449.129,313.902 445.5,289.5 Z"/></g>
<g><path style="opacity:0.961" fill="#21cebc" d="M 640.5,289.5 C 660.511,289.167 680.511,289.5 700.5,290.5C 707.302,292.991 713.302,296.658 718.5,301.5C 720.225,314.247 722.225,326.914 724.5,339.5C 723.851,342.583 722.351,345.249 720,347.5C 719.51,348.793 719.343,350.127 719.5,351.5C 718.448,351.351 717.448,351.517 716.5,352C 713.687,353.82 711.187,355.987 709,358.5C 705.879,359.643 702.713,360.643 699.5,361.5C 683.518,362.439 667.518,362.772 651.5,362.5C 648.157,338.107 644.49,313.774 640.5,289.5 Z"/></g>
<g><path style="opacity:0.634" fill="#21cebd" d="M 718.5,301.5 C 720.467,305.147 722.467,308.814 724.5,312.5C 725.822,321.658 725.822,330.658 724.5,339.5C 722.225,326.914 720.225,314.247 718.5,301.5 Z"/></g>
<g><path style="opacity:0.99" fill="#24d3b2" d="M 462.5,393.5 C 475.509,479.577 488.842,565.577 502.5,651.5C 497.612,653.286 492.612,654.953 487.5,656.5C 484.201,657.21 480.867,657.543 477.5,657.5C 477.5,658.5 477.5,659.5 477.5,660.5C 467.198,661.86 456.865,663.026 446.5,664C 426.5,664.667 406.5,664.667 386.5,664C 375.333,663.232 364.333,661.565 353.5,659C 353.833,658.667 354.167,658.333 354.5,658C 347.083,657.467 340.083,655.634 333.5,652.5C 319.181,566.622 305.515,480.622 292.5,394.5C 349.165,393.934 405.832,393.6 462.5,393.5 Z"/></g>
<g><path style="opacity:0.977" fill="#23d1b7" d="M 462.5,393.5 C 520.881,394.029 579.215,395.363 637.5,397.5C 639.31,419.485 639.644,441.485 638.5,463.5C 637.155,464.347 636.155,465.513 635.5,467C 630.895,468.964 626.562,471.297 622.5,474C 616.91,479.904 611.577,485.904 606.5,492C 606.957,492.414 607.291,492.914 607.5,493.5C 605.766,494.674 604.766,496.34 604.5,498.5C 602.385,512.209 600.051,525.875 597.5,539.5C 596.704,542.669 595.371,545.502 593.5,548C 594.022,548.561 594.355,549.228 594.5,550C 592.729,552.591 591.062,555.258 589.5,558C 590.554,559.388 590.72,560.888 590,562.5C 589.667,562.167 589.333,561.833 589,561.5C 587.232,567.471 585.065,573.304 582.5,579C 581.44,580.928 580.107,582.595 578.5,584C 579.609,585.813 578.942,586.646 576.5,586.5C 572.881,592.993 569.381,599.66 566,606.5C 558.042,613.622 550.209,620.955 542.5,628.5C 541.271,629.281 539.938,629.781 538.5,630C 538.833,630.333 539.167,630.667 539.5,631C 527.962,639.238 515.629,646.071 502.5,651.5C 488.842,565.577 475.509,479.577 462.5,393.5 Z"/></g>
<g><path style="opacity:0.985" fill="#26d5af" d="M 280.5,394.5 C 293.739,479.174 307.073,563.84 320.5,648.5C 312.343,644.013 304.343,639.346 296.5,634.5C 294.66,630.772 291.66,628.605 287.5,628C 287.833,627.667 288.167,627.333 288.5,627C 287.29,625.961 286.29,624.794 285.5,623.5C 273.406,548.936 261.74,474.269 250.5,399.5C 250.36,397.97 249.693,396.97 248.5,396.5C 248.611,395.883 248.944,395.383 249.5,395C 259.828,394.5 270.161,394.334 280.5,394.5 Z"/></g>
<g><path style="opacity:0.987" fill="#26d4af" d="M 280.5,394.5 C 284.5,394.5 288.5,394.5 292.5,394.5C 305.515,480.622 319.181,566.622 333.5,652.5C 329.257,650.879 324.924,649.546 320.5,648.5C 307.073,563.84 293.739,479.174 280.5,394.5 Z"/></g>
<g><path style="opacity:0.958" fill="#26d5ad" d="M 248.5,396.5 C 249.693,396.97 250.36,397.97 250.5,399.5C 261.74,474.269 273.406,548.936 285.5,623.5C 279.863,617.869 273.863,612.535 267.5,607.5C 266.948,603.723 264.948,601.056 261.5,599.5C 261.709,598.914 262.043,598.414 262.5,598C 257.518,593 254.185,587.333 252.5,581C 250.338,578.329 248.338,575.495 246.5,572.5C 246.709,571.914 247.043,571.414 247.5,571C 245.114,570.716 244.448,569.716 245.5,568C 243.901,566.214 243.067,564.047 243,561.5C 242.667,561.833 242.333,562.167 242,562.5C 241.28,560.888 241.446,559.388 242.5,558C 239.173,550.732 236.339,543.232 234,535.5C 233.257,533.559 233.424,531.726 234.5,530C 233.552,529.517 232.552,529.351 231.5,529.5C 230.889,519.08 229.556,508.747 227.5,498.5C 226.694,495.554 225.361,492.888 223.5,490.5C 223.709,489.914 224.043,489.414 224.5,489C 217.81,481.644 210.477,474.978 202.5,469C 200.564,468.187 198.564,467.687 196.5,467.5C 196.55,465.41 195.55,464.077 193.5,463.5C 193.167,457.333 192.833,451.167 192.5,445C 193.482,429.174 194.316,413.34 195,397.5C 212.757,396.508 230.59,396.174 248.5,396.5 Z"/></g>
<g><path style="opacity:0.973" fill="#26d6ab" d="M 304.5,748.5 C 313.994,803.853 322.994,859.186 331.5,914.5C 331.333,929.17 331.5,943.837 332,958.5C 332.934,962.469 334.6,966.135 337,969.5C 337.671,970.252 338.504,970.586 339.5,970.5C 340.651,978.231 341.984,985.898 343.5,993.5C 273.833,993.5 204.167,993.5 134.5,993.5C 133.068,986.909 132.068,980.243 131.5,973.5C 136.315,971.278 140.315,967.944 143.5,963.5C 142.238,961.425 142.405,959.425 144,957.5C 144.499,952.177 144.666,946.844 144.5,941.5C 138.5,941.5 132.5,941.5 126.5,941.5C 124.315,928.54 122.315,915.54 120.5,902.5C 123.388,902.22 124.888,903.553 125,906.5C 125.5,913.158 125.666,919.825 125.5,926.5C 131.833,926.5 138.167,926.5 144.5,926.5C 144.666,920.491 144.499,914.491 144,908.5C 142.322,900.312 137.156,894.979 128.5,892.5C 125.232,891.513 121.898,891.18 118.5,891.5C 111.661,850.752 104.994,810.086 98.5,769.5C 105.261,764.831 113.094,761.164 122,758.5C 125.081,757.031 127.914,755.198 130.5,753C 137.578,750.307 144.744,747.807 152,745.5C 154.383,744.248 156.383,742.582 158,740.5C 158.333,740.833 158.667,741.167 159,741.5C 160.996,739.95 163.162,738.616 165.5,737.5C 166.086,737.709 166.586,738.043 167,738.5C 173.605,735.115 180.105,731.615 186.5,728C 203.561,721.945 219.561,714.779 234.5,706.5C 235.442,706.608 236.275,706.941 237,707.5C 239.739,704.289 243.239,702.456 247.5,702C 246.167,701.333 246.167,700.667 247.5,700C 251.863,699.021 256.03,697.521 260,695.5C 265.443,697.94 269.11,701.94 271,707.5C 274.965,709.892 277.798,713.226 279.5,717.5C 283.356,721.189 287.023,725.022 290.5,729C 290.167,729.333 289.833,729.667 289.5,730C 291.517,730.674 293.183,731.841 294.5,733.5C 297.084,737.426 300.084,741.093 303.5,744.5C 303.291,745.086 302.957,745.586 302.5,746C 303.756,746.417 304.423,747.25 304.5,748.5 Z M 298.5,966.5 C 291.178,975.09 281.845,977.924 270.5,975C 269.051,973.883 267.384,973.216 265.5,973C 263.774,971.47 261.774,970.47 259.5,970C 258.884,967.821 257.717,965.988 256,964.5C 255.83,962.285 255.163,960.285 254,958.5C 253.333,942.167 253.333,925.833 254,909.5C 254.933,905.505 256.6,901.838 259,898.5C 267.158,892.245 276.325,890.245 286.5,892.5C 289.749,893.944 292.749,895.778 295.5,898C 296.896,901.427 298.896,904.427 301.5,907C 300.674,924.76 300.174,942.593 300,960.5C 299.809,962.708 299.309,964.708 298.5,966.5 Z M 174.5,893.5 C 181.841,893.334 189.174,893.5 196.5,894C 195.513,904.418 195.18,914.918 195.5,925.5C 197.833,925.5 200.167,925.5 202.5,925.5C 202.5,914.833 202.5,904.167 202.5,893.5C 209.841,893.334 217.174,893.5 224.5,894C 223.505,920.426 223.172,946.926 223.5,973.5C 216.5,973.5 209.5,973.5 202.5,973.5C 202.5,962.167 202.5,950.833 202.5,939.5C 200.167,939.5 197.833,939.5 195.5,939.5C 195.5,950.833 195.5,962.167 195.5,973.5C 188.5,973.5 181.5,973.5 174.5,973.5C 174.5,946.833 174.5,920.167 174.5,893.5 Z"/></g>
<g><path style="opacity:0.965" fill="#22d0b8" d="M 714.5,758.5 C 720.963,803.608 727.963,848.608 735.5,893.5C 725.167,893.5 714.833,893.5 704.5,893.5C 704.5,920.167 704.5,946.833 704.5,973.5C 716.167,973.5 727.833,973.5 739.5,973.5C 739.5,968.833 739.5,964.167 739.5,959.5C 734.5,959.5 729.5,959.5 724.5,959.5C 724.5,952.833 724.5,946.167 724.5,939.5C 729.167,939.5 733.833,939.5 738.5,939.5C 738.5,935.167 738.5,930.833 738.5,926.5C 733.833,926.5 729.167,926.5 724.5,926.5C 724.5,920.5 724.5,914.5 724.5,908.5C 729.167,908.5 733.833,908.5 738.5,908.5C 742.298,936.952 746.631,965.285 751.5,993.5C 686.167,993.5 620.833,993.5 555.5,993.5C 555.054,986.713 554.054,980.046 552.5,973.5C 556.833,973.5 561.167,973.5 565.5,973.5C 565.5,963.833 565.5,954.167 565.5,944.5C 566.833,944.5 568.167,944.5 569.5,944.5C 571.579,954.949 573.912,964.615 576.5,973.5C 582.842,973.666 589.175,973.5 595.5,973C 594.167,946.667 594.167,920.333 595.5,894C 589.175,893.5 582.842,893.334 576.5,893.5C 576.5,903.5 576.5,913.5 576.5,923.5C 575.5,923.5 574.5,923.5 573.5,923.5C 572.089,915.851 569.756,908.518 566.5,901.5C 566.608,900.558 566.941,899.725 567.5,899C 565.808,897.599 565.141,895.766 565.5,893.5C 559.5,893.5 553.5,893.5 547.5,893.5C 547.5,907.5 547.5,921.5 547.5,935.5C 538.618,877.536 529.284,819.536 519.5,761.5C 519.574,759.589 520.574,758.422 522.5,758C 521.549,757.282 521.383,756.449 522,755.5C 527.749,751.796 531.749,747.129 534,741.5C 536.292,740.21 538.292,738.543 540,736.5C 545.14,729.14 550.973,722.307 557.5,716C 557.043,715.586 556.709,715.086 556.5,714.5C 562.469,707.959 568.636,701.626 575,695.5C 578.453,696.81 581.953,697.977 585.5,699C 587.306,699.81 588.806,700.976 590,702.5C 591.811,703.078 593.645,703.578 595.5,704C 595.167,704.333 594.833,704.667 594.5,705C 596.402,705.199 597.902,706.033 599,707.5C 599.561,706.978 600.228,706.645 601,706.5C 613.635,712.993 626.968,718.993 641,724.5C 653.21,731.215 665.71,736.715 678.5,741C 680.011,742.844 681.845,744.344 684,745.5C 694.434,749.362 704.6,753.695 714.5,758.5 Z M 666.5,969.5 C 661.639,973.415 655.972,975.415 649.5,975.5C 644.344,975.231 639.344,974.231 634.5,972.5C 632.864,971.696 631.364,970.696 630,969.5C 628.026,965.299 626.193,961.133 624.5,957C 625.325,940.907 625.825,924.741 626,908.5C 626.356,904.646 627.856,901.313 630.5,898.5C 633.41,898.152 635.41,896.652 636.5,894C 648.637,889.556 659.637,891.389 669.5,899.5C 669.901,901.434 670.901,902.934 672.5,904C 671.151,905.635 671.318,907.135 673,908.5C 673.19,914.416 673.69,920.249 674.5,926C 667.842,926.5 661.175,926.666 654.5,926.5C 654.896,918.747 654.396,911.08 653,903.5C 648.361,901.318 645.361,902.651 644,907.5C 643.333,925.167 643.333,942.833 644,960.5C 645.361,965.349 648.361,966.682 653,964.5C 654.356,956.905 654.856,949.238 654.5,941.5C 661.175,941.334 667.842,941.5 674.5,942C 673.167,947 673.167,952 674.5,957C 673.552,957.483 672.552,957.649 671.5,957.5C 671.244,959.792 671.577,961.959 672.5,964C 670.63,966.04 668.63,967.873 666.5,969.5 Z"/></g>
<g><path style="opacity:0.969" fill="#26d4af" d="M 304.5,748.5 C 307.412,750.066 310.079,752.066 312.5,754.5C 313.662,758.407 316.329,761.741 320.5,764.5C 323.505,768.997 326.672,773.331 330,777.5C 332.682,780.35 335.516,783.016 338.5,785.5C 338.291,786.086 337.957,786.586 337.5,787C 339.678,789.011 341.678,791.177 343.5,793.5C 347.636,826.317 352.636,858.984 358.5,891.5C 347.648,890.557 339.481,894.557 334,903.5C 332.862,907.121 332.028,910.788 331.5,914.5C 322.994,859.186 313.994,803.853 304.5,748.5 Z"/></g>
<g><path style="opacity:0.962" fill="#21cebc" d="M 714.5,758.5 C 742.408,770.741 769.408,782.741 795.5,794.5C 802.028,829.67 807.695,865.004 812.5,900.5C 809.691,897.704 806.358,895.704 802.5,894.5C 791.186,893.501 779.853,893.168 768.5,893.5C 768.5,920.167 768.5,946.833 768.5,973.5C 775.5,973.5 782.5,973.5 789.5,973.5C 789.5,961.167 789.5,948.833 789.5,936.5C 791.766,936.141 793.599,936.808 795,938.5C 795.333,938.167 795.667,937.833 796,937.5C 796.5,949.495 796.667,961.495 796.5,973.5C 802.833,973.5 809.167,973.5 815.5,973.5C 815.181,963.584 815.514,953.75 816.5,944C 814.954,942.56 814.121,940.727 814,938.5C 811.833,937.667 810.333,936.167 809.5,934C 808.207,933.51 806.873,933.343 805.5,933.5C 805.5,932.167 805.5,930.833 805.5,929.5C 808.231,928.973 810.898,928.14 813.5,927C 814.123,924.393 814.79,921.893 815.5,919.5C 819.538,944.1 823.205,968.767 826.5,993.5C 801.5,993.5 776.5,993.5 751.5,993.5C 746.631,965.285 742.298,936.952 738.5,908.5C 738.5,903.5 738.5,898.5 738.5,893.5C 737.5,893.5 736.5,893.5 735.5,893.5C 727.963,848.608 720.963,803.608 714.5,758.5 Z"/></g>
<g><path style="opacity:0.955" fill="#24d2b2" d="M 519.5,761.5 C 529.284,819.536 538.618,877.536 547.5,935.5C 547.5,948.167 547.5,960.833 547.5,973.5C 549.167,973.5 550.833,973.5 552.5,973.5C 554.054,980.046 555.054,986.713 555.5,993.5C 499.5,993.5 443.5,993.5 387.5,993.5C 386.47,992.448 385.803,991.114 385.5,989.5C 383.429,974.982 381.095,960.649 378.5,946.5C 378.667,933.163 378.5,919.829 378,906.5C 376.464,902.661 374.297,899.327 371.5,896.5C 367.06,868.194 362.727,839.861 358.5,811.5C 361.192,812.53 362.692,814.53 363,817.5C 367.119,820.881 370.453,824.881 373,829.5C 374.693,831.027 376.527,832.36 378.5,833.5C 379.741,838.036 382.408,841.369 386.5,843.5C 390.272,847.925 393.605,852.592 396.5,857.5C 398.575,859.719 400.909,861.719 403.5,863.5C 404.205,865.672 405.205,867.672 406.5,869.5C 410.255,873.878 414.088,878.211 418,882.5C 421.503,876.739 425.836,871.739 431,867.5C 432.853,862.821 436.02,859.321 440.5,857C 439.549,856.282 439.383,855.449 440,854.5C 442.833,851.667 445.667,848.833 448.5,846C 448.167,845.667 447.833,845.333 447.5,845C 451.624,841.791 454.957,837.958 457.5,833.5C 461.309,831.03 463.976,827.697 465.5,823.5C 468.022,821.144 470.688,818.977 473.5,817C 473.043,816.586 472.709,816.086 472.5,815.5C 475.18,812.285 478.18,809.452 481.5,807C 481.043,806.586 480.709,806.086 480.5,805.5C 486.096,800.113 491.429,794.446 496.5,788.5C 498.429,784.571 501.096,781.238 504.5,778.5C 505.246,777.264 505.579,775.93 505.5,774.5C 506.552,774.649 507.552,774.483 508.5,774C 511.041,771.084 513.207,767.917 515,764.5C 516.4,763.252 517.9,762.252 519.5,761.5 Z M 410.5,893.5 C 417.5,893.5 424.5,893.5 431.5,893.5C 431.5,915.5 431.5,937.5 431.5,959.5C 436.179,959.334 440.845,959.501 445.5,960C 444.533,964.401 444.2,968.901 444.5,973.5C 433.167,973.5 421.833,973.5 410.5,973.5C 410.5,946.833 410.5,920.167 410.5,893.5 Z M 479.5,893.5 C 489.167,893.5 498.833,893.5 508.5,893.5C 507.899,897.29 508.899,900.456 511.5,903C 510.39,905.737 510.223,908.571 511,911.5C 514.695,932.012 517.862,952.678 520.5,973.5C 514.167,973.5 507.833,973.5 501.5,973.5C 501.666,968.821 501.499,964.155 501,959.5C 497.27,958.54 493.437,958.207 489.5,958.5C 489.5,963.5 489.5,968.5 489.5,973.5C 483.167,973.5 476.833,973.5 470.5,973.5C 473.041,946.473 476.041,919.806 479.5,893.5 Z"/></g>
<g><path style="opacity:0.952" fill="#28d8a7" d="M 98.5,769.5 C 104.994,810.086 111.661,850.752 118.5,891.5C 114.371,891.874 110.371,892.874 106.5,894.5C 105.262,896.637 103.429,897.971 101,898.5C 100.74,900.618 99.7398,902.284 98,903.5C 96.8963,921.363 96.063,939.197 95.5,957C 96.9103,959.738 98.2436,962.571 99.5,965.5C 99.2907,966.086 98.9574,966.586 98.5,967C 100.343,969.173 102.51,971.007 105,972.5C 113.695,975.97 122.528,976.303 131.5,973.5C 132.068,980.243 133.068,986.909 134.5,993.5C 90.5,993.5 46.5,993.5 2.5,993.5C 2.1869,933.438 2.1869,873.105 2.5,812.5C 4.21988,811.02 6.05321,809.686 8,808.5C 19.5753,804.722 30.5753,799.722 41,793.5C 41.3333,793.833 41.6667,794.167 42,794.5C 53.8278,788.838 65.6612,783.172 77.5,777.5C 83.9357,776.085 89.6023,773.251 94.5,769C 95.9285,768.421 97.2618,768.588 98.5,769.5 Z M 34.5,891.5 C 40.5368,891.171 46.5368,891.504 52.5,892.5C 62.8299,897.098 67.1632,905.098 65.5,916.5C 59.5,916.5 53.5,916.5 47.5,916.5C 47.8242,912.445 47.4909,908.445 46.5,904.5C 45.6721,903.585 44.6721,902.919 43.5,902.5C 41.9436,903.547 40.2769,904.214 38.5,904.5C 38.5,909.5 38.5,914.5 38.5,919.5C 44.3677,922.911 50.3677,926.078 56.5,929C 61.1697,933.371 64.8364,938.371 67.5,944C 66.1667,950.667 66.1667,957.333 67.5,964C 65.576,966.931 63.2427,969.597 60.5,972C 48.5227,977.141 36.856,976.474 25.5,970C 24.511,968.18 23.511,966.347 22.5,964.5C 21.5859,958.541 21.2526,952.541 21.5,946.5C 27.5092,946.334 33.5092,946.501 39.5,947C 38.5286,952.072 38.1953,957.238 38.5,962.5C 39.5,962.5 40.5,962.5 41.5,962.5C 41.5,963.5 41.5,964.5 41.5,965.5C 43.1439,965.714 44.6439,965.38 46,964.5C 48.9159,960.514 49.7492,956.181 48.5,951.5C 47.8333,949.5 47.1667,947.5 46.5,945.5C 43.0223,943.009 39.689,940.342 36.5,937.5C 35.914,937.709 35.414,938.043 35,938.5C 33.5619,937.1 32.7286,935.433 32.5,933.5C 28.7262,932.737 25.7262,930.737 23.5,927.5C 22.0894,923.064 20.756,918.564 19.5,914C 20.7947,909.924 21.6281,905.757 22,901.5C 26.1285,897.845 30.2952,894.511 34.5,891.5 Z"/></g>
<g><path style="opacity:0.959" fill="#26d4af" d="M 343.5,793.5 C 344.496,793.414 345.329,793.748 346,794.5C 346.318,796.061 347.151,797.228 348.5,798C 348.167,798.333 347.833,798.667 347.5,799C 352.034,802.481 355.701,806.648 358.5,811.5C 362.727,839.861 367.06,868.194 371.5,896.5C 369.014,895.512 366.68,894.179 364.5,892.5C 362.604,891.534 360.604,891.201 358.5,891.5C 352.636,858.984 347.636,826.317 343.5,793.5 Z"/></g>
<g><path style="opacity:0.976" fill="#21cebd" d="M 795.5,794.5 C 798.258,795.377 800.924,796.544 803.5,798C 803.167,798.333 802.833,798.667 802.5,799C 812.166,802.942 821.833,806.775 831.5,810.5C 831.5,871.5 831.5,932.5 831.5,993.5C 829.833,993.5 828.167,993.5 826.5,993.5C 823.205,968.767 819.538,944.1 815.5,919.5C 815.31,916.871 815.643,914.038 816.5,911C 814.709,908.894 814.042,906.394 814.5,903.5C 811.752,903.598 811.086,902.598 812.5,900.5C 807.695,865.004 802.028,829.67 795.5,794.5 Z"/></g>
<g><path style="opacity:0.004" fill="#25d4b0" d="M 396.5,856.5 C 397.833,857.167 397.833,857.167 396.5,856.5 Z"/></g>
<g><path style="opacity:0.753" fill="#28d8a7" d="M 120.5,902.5 C 122.315,915.54 124.315,928.54 126.5,941.5C 125.898,949.065 125.064,956.731 124,964.5C 119.362,966.752 116.695,965.419 116,960.5C 115.667,960.833 115.333,961.167 115,961.5C 114.167,943.158 114.334,924.824 115.5,906.5C 116.004,903.658 117.671,902.325 120.5,902.5 Z"/></g>
<g><path style="opacity:0.705" fill="#26d6ac" d="M 275.5,902.5 C 277.722,902.178 279.556,902.845 281,904.5C 281.667,923.833 281.667,943.167 281,962.5C 280.072,965.035 278.238,966.035 275.5,965.5C 275.5,964.167 275.5,962.833 275.5,961.5C 274.5,961.5 273.5,961.5 272.5,961.5C 272.167,943.155 272.5,924.821 273.5,906.5C 275.111,905.68 275.778,904.346 275.5,902.5 Z"/></g>
<g><path style="opacity:0.698" fill="#26d5ae" d="M 352.5,902.5 C 354.827,902.247 356.827,902.914 358.5,904.5C 360.092,924.95 359.759,945.283 357.5,965.5C 355.833,965.5 354.167,965.5 352.5,965.5C 352.66,963.801 352.494,962.134 352,960.5C 351.667,960.833 351.333,961.167 351,961.5C 349.935,941.731 350.435,922.064 352.5,902.5 Z"/></g>
<g><path style="opacity:0.61" fill="#21cfbc" d="M 789.5,904.5 C 791.821,904.229 793.821,904.896 795.5,906.5C 796.833,912.167 796.833,917.833 795.5,923.5C 793.821,925.104 791.821,925.771 789.5,925.5C 789.5,918.5 789.5,911.5 789.5,904.5 Z"/></g>
<g><path style="opacity:0.6" fill="#24d3b3" d="M 492.5,916.5 C 494.582,916.472 496.416,917.139 498,918.5C 498.666,927.828 499.166,937.161 499.5,946.5C 496.5,946.5 493.5,946.5 490.5,946.5C 490.856,936.475 491.523,926.475 492.5,916.5 Z"/></g>
<g><path style="opacity:0.912" fill="#26d4af" d="M 378.5,946.5 C 381.095,960.649 383.429,974.982 385.5,989.5C 385.803,991.114 386.47,992.448 387.5,993.5C 383.167,993.5 378.833,993.5 374.5,993.5C 373.068,986.238 372.068,978.904 371.5,971.5C 373.988,969.186 375.988,966.519 377.5,963.5C 378.355,957.866 378.688,952.199 378.5,946.5 Z"/></g>
<g><path style="opacity:0.922" fill="#26d5ae" d="M 339.5,970.5 C 344.287,974.002 349.787,975.668 356,975.5C 361.584,975.575 366.751,974.242 371.5,971.5C 372.068,978.904 373.068,986.238 374.5,993.5C 364.167,993.5 353.833,993.5 343.5,993.5C 341.984,985.898 340.651,978.231 339.5,970.5 Z"/></g>
</svg>
