<svg xmlns="http://www.w3.org/2000/svg" width="500" height="200"><path fill="#848485" d="M31.9 18.1c1.1-4.7 2-10.5 2.6-16.1L14 1.4c-.2 2.6-1.2 12.1-3.9 17.8-.2.3-.6.5-.9.3-.3-.2-.5-.6-.4-.9 3-6.3 3.8-17.8 3.8-18 0-.4.3-.7.7-.6l21.9.6c.2 0 .4.1.5.2.2.2.3.4.3.6-.3 2.9-.9 9.1-2.2 14.8l-1.9 1.9zm-10.3 3.7c.9 1.7 1.7 3 2.5 4l-1 1c-.8-1-1.7-2.3-2.6-4l-18-.4c.6 1.6 2.1 4.9 5.4 5 4 .1 10.2.2 14.4.2L21 28.9c-4.1 0-9.5-.1-13.1-.2-5.4-.1-6.9-6.6-7-6.9 0-.2 0-.4.2-.6.1-.1.3-.2.5-.2l19.4.4c.3 0 .5.2.6.4zM17.8 6.3l11.2.4c.4 0 .7.3.7.7 0 .4-.3.7-.7.7l-11.2-.4c-.4 0-.7-.3-.7-.7 0-.4.3-.7.7-.7zm4.5 10.8c0 .4-.3.7-.7.7l-6-.2c-.4 0-.7-.3-.7-.7 0-.4.3-.7.7-.7l6 .2c.4 0 .8.3.7.7zM17 11.2l10.5.4c.4 0 .7.3.7.7s-.3.7-.7.7L17 12.6c-.4 0-.7-.3-.7-.7s.3-.7.7-.7zm1.9 26l-1.3-2.5c-.7-1.5-3-3.8-6.5-2.1l-1.9.9h-.1c-.4.2-4.2 1.7-5.6-1.1l-1.9-4c-.2-.4-.7-.6-1.1-.4s-.6.7-.4 1.1l1.9 4c1.6 3.2 5.3 2.8 7.3 2h.1l.3-.1.1-.1c.3-.2 1-.5 2-1 2.8-1.4 4.1 1 4.3 1.3l1.3 2.5m31.2-21.5l-4.5-4.7c-.3-.3-.7-.5-1-.5-.4 0-.8.1-1.1.4L24 27.9c-.1.1-.3.3-.3.5L20.3 36c-.2.5-.1 1.2.3 1.6.3.3.7.5 1 .5.2 0 .4 0 .6-.1l8-2.9c.2-.1.4-.2.5-.3l17.9-16.4.1-.1c.3-.3.5-.6.5-1-.2-.5-.3-.9-.6-1.1zM24.5 29.3l4.7 4.9-5.8 2.1-1.4-1.6 2.5-5.4zm23.2-11.9L30.2 33.5l-1.3-1.4s.1 0 .1-.1l15.6-14.3c.2-.2.2-.6 0-.8-.2-.2-.6-.2-.8 0L28.2 31.3l-.1.1-2.9-3.1 17.6-16.1c.1-.1.4-.1.5 0l4.5 4.7c.1.1.1.2.1.2-.1.2-.1.2-.2.3z"/><g fill="#858585"><path d="M217.7 59.4v-2.2h-2.3v2.2h2.3zm-5.3 5.1c1.3 0 2.4-1 2.4-2.3 0-.5-.2-1-.5-1.3-.5-.6-1.2-1-1.9-1-.8 0-1.5.4-1.9 1-.3.4-.5.9-.5 1.3 0 1.2 1.1 2.3 2.4 2.3z"/><path d="M212.5 50c-6.9 0-12.5 5.4-12.5 12s5.6 12 12.5 12S225 68.6 225 62s-5.6-12-12.5-12zm6.7 10.8v5.3c0 1.4-1.2 2.5-2.6 2.5h-8.3c-1.4 0-2.6-1.1-2.6-2.5v-8c0-1.4 1.2-2.5 2.6-2.5h8.3c1.4 0 2.6 1.1 2.6 2.5v2.7z"/><path d="M216.2 62.2c0 2-1.7 3.6-3.7 3.6-2.1 0-3.7-1.6-3.7-3.6 0-.5.1-.9.3-1.3h-2v5.3c0 .7.6 1.2 1.3 1.2h8.3c.7 0 1.3-.6 1.3-1.2v-5.3h-2c.1.4.2.8.2 1.3z"/></g><path fill="#858585" d="M112.5 50c-6.9 0-12.5 5.4-12.5 12 0 4.9 3.1 9.1 7.5 11 0-.8 0-1.8.2-2.8l1.6-6.5s-.4-.8-.4-1.9c0-1.8 1.1-3.1 2.4-3.1 1.1 0 1.7.8 1.7 1.8 0 1.1-.7 2.7-1.1 4.3-.3 1.3.7 2.3 2 2.3 2.4 0 4-2.9 4-6.4 0-2.6-1.8-4.6-5.2-4.6-3.8 0-6.2 2.7-6.2 5.7 0 1 .3 1.8.8 2.4.2.3.3.4.2.7-.1.2-.2.8-.3 1-.1.3-.3.4-.6.3-1.7-.7-2.6-2.5-2.6-4.6 0-3.4 3-7.5 8.9-7.5 4.8 0 7.9 3.3 7.9 6.9 0 4.7-2.7 8.2-6.7 8.2-1.3 0-2.6-.7-3.1-1.5 0 0-.7 2.8-.9 3.3-.3.9-.8 1.8-1.3 2.6 1.2.3 2.3.5 3.5.5 6.9 0 12.5-5.4 12.5-12S119.4 50 112.5 50z"/><g fill="#858585"><path d="M12.5 50C5.6 50 0 55.4 0 62s5.6 12 12.5 12S25 68.6 25 62s-5.6-12-12.5-12zm7 17.8c0 .5-.5 1-1 1h-12c-.6 0-1-.4-1-1V56.3c0-.5.5-1 1-1h11.9c.6 0 1 .4 1 1v11.5h.1z"/><path d="M14.9 60.4c-1.1 0-1.6.6-1.9 1v-.9h-2.1v6.1H13v-3.4c0-.2 0-.4.1-.5.2-.4.5-.7 1.1-.7.8 0 1.1.6 1.1 1.4v3.3h2.1v-3.5c-.1-2-1.1-2.8-2.5-2.8zm-6.2-2.8c-.7 0-1.2.5-1.2 1.1s.5 1 1.2 1 1.2-.5 1.2-1c0-.7-.5-1.1-1.2-1.1zm-1.1 9h2.1v-6.1H7.6v6.1z"/></g><path fill="#858585" d="M162.5 50c-6.9 0-12.5 5.4-12.5 12s5.6 12 12.5 12S175 68.6 175 62s-5.6-12-12.5-12zm3.3 12h-2.2v7.4h-3.2V62h-1.5v-2.6h1.5v-1.7c0-1.2.6-3.1 3.2-3.1h2.4v2.5h-1.7c-.3 0-.7.1-.7.7v1.5h2.4l-.2 2.7zM62.5 50C55.6 50 50 55.4 50 62s5.6 12 12.5 12S75 68.6 75 62s-5.6-12-12.5-12zm6.3 9.6v.4c0 4-3.2 8.6-9 8.6-1.7 0-3.4-.5-4.8-1.4h.8c1.4 0 2.8-.5 3.9-1.3-1.4 0-2.5-.9-2.9-2.1.5.1 1 .1 1.4-.1-1.4-.3-2.5-1.5-2.5-3 .4.2.9.4 1.4.4-.8-.5-1.4-1.5-1.4-2.5 0-.6.2-1.1.4-1.5 1.6 1.8 3.9 3 6.5 3.2-.1-.2-.1-.5-.1-.7 0-1.7 1.4-3 3.2-3 .9 0 1.7.3 2.3 1 .7-.1 1.4-.4 2-.7-.2.7-.7 1.3-1.4 1.7.6-.1 1.2-.2 1.8-.5-.5.5-1 1.1-1.6 1.5z"/><g fill="#1DBF73"><path d="M217.7 109.4v-2.2h-2.3v2.2h2.3zm-5.3 5.1c1.3 0 2.4-1 2.4-2.3 0-.5-.2-1-.5-1.3-.5-.6-1.2-1-1.9-1-.8 0-1.5.4-1.9 1-.3.4-.5.9-.5 1.3 0 1.2 1.1 2.3 2.4 2.3z"/><path d="M212.5 100c-6.9 0-12.5 5.4-12.5 12s5.6 12 12.5 12 12.5-5.4 12.5-12-5.6-12-12.5-12zm6.7 10.8v5.3c0 1.4-1.2 2.5-2.6 2.5h-8.3c-1.4 0-2.6-1.1-2.6-2.5v-8c0-1.4 1.2-2.5 2.6-2.5h8.3c1.4 0 2.6 1.1 2.6 2.5v2.7z"/><path d="M216.2 112.2c0 2-1.7 3.6-3.7 3.6-2.1 0-3.7-1.6-3.7-3.6 0-.5.1-.9.3-1.3h-2v5.3c0 .7.6 1.2 1.3 1.2h8.3c.7 0 1.3-.6 1.3-1.2v-5.3h-2c.1.4.2.8.2 1.3z"/></g><path fill="#1DBF73" d="M112.5 100c-6.9 0-12.5 5.4-12.5 12 0 4.9 3.1 9.1 7.5 11 0-.8 0-1.8.2-2.8l1.6-6.5s-.4-.8-.4-1.9c0-1.8 1.1-3.1 2.4-3.1 1.1 0 1.7.8 1.7 1.8 0 1.1-.7 2.7-1.1 4.3-.3 1.3.7 2.3 2 2.3 2.4 0 4-2.9 4-6.4 0-2.6-1.8-4.6-5.2-4.6-3.8 0-6.2 2.7-6.2 5.7 0 1.1.3 1.8.8 2.4.2.3.3.4.2.7-.1.2-.2.8-.3 1-.1.3-.3.4-.6.3-1.7-.7-2.6-2.5-2.6-4.6 0-3.4 3-7.5 8.9-7.5 4.8 0 7.9 3.3 7.9 6.9 0 4.7-2.7 8.2-6.7 8.2-1.3 0-2.6-.7-3.1-1.5 0 0-.7 2.8-.9 3.3-.3.9-.8 1.8-1.3 2.6 1.2.3 2.3.5 3.5.5 6.9 0 12.5-5.4 12.5-12 .2-6.7-5.4-12.1-12.3-12.1z"/><g fill="#1DBF73"><path d="M12.5 100C5.6 100 0 105.4 0 112s5.6 12 12.5 12S25 118.6 25 112s-5.6-12-12.5-12zm7 17.8c0 .5-.5 1-1 1h-12c-.6 0-1-.4-1-1v-11.5c0-.5.5-1 1-1h11.9c.6 0 1 .4 1 1v11.5h.1z"/><path d="M14.9 110.4c-1.1 0-1.6.6-1.9 1v-.9h-2.1v6.1H13v-3.4c0-.2 0-.4.1-.5.2-.4.5-.7 1.1-.7.8 0 1.1.6 1.1 1.4v3.3h2.1v-3.5c-.1-2-1.1-2.8-2.5-2.8zm-6.2-2.8c-.7 0-1.2.5-1.2 1.1s.5 1.1 1.2 1.1 1.2-.5 1.2-1.1c0-.7-.5-1.1-1.2-1.1zm-1.1 9h2.1v-6.1H7.6v6.1z"/></g><path fill="#1DBF73" d="M162.5 100c-6.9 0-12.5 5.4-12.5 12s5.6 12 12.5 12 12.5-5.4 12.5-12-5.6-12-12.5-12zm3.3 11.9h-2.2v7.4h-3.2v-7.4h-1.5v-2.6h1.5v-1.7c0-1.2.6-3.1 3.2-3.1h2.4v2.5h-1.7c-.3 0-.7.1-.7.7v1.5h2.4l-.2 2.7zM62.5 100c-6.9 0-12.5 5.4-12.5 12s5.6 12 12.5 12S75 118.6 75 112s-5.6-12-12.5-12zm6.3 9.6v.4c0 4-3.2 8.6-9 8.6-1.7 0-3.4-.5-4.8-1.4h.8c1.4 0 2.8-.5 3.9-1.3-1.4 0-2.5-.9-2.9-2.1.5.1 1 .1 1.4-.1-1.4-.3-2.5-1.5-2.5-3 .4.2.9.4 1.4.4-.8-.5-1.4-1.5-1.4-2.5 0-.6.2-1.1.4-1.5 1.6 1.8 3.9 3 6.5 3.2-.1-.2-.1-.5-.1-.7 0-1.7 1.4-3 3.2-3 .9 0 1.7.3 2.3 1 .7-.1 1.4-.4 2-.7-.2.7-.7 1.3-1.4 1.7.6-.1 1.2-.2 1.8-.5-.5.5-1 1.1-1.6 1.5z"/><path fill="#A8A8A8" d="M257.8 52c3.2 0 5.8 2.7 5.8 6.1 0 3.4-2.6 6.1-5.8 6.1s-5.8-2.7-5.8-6.1c0-3.4 2.6-6.1 5.8-6.1m0-2c-4.3 0-7.8 3.6-7.8 8.1s3.5 8.1 7.8 8.1 7.8-3.6 7.8-8.1-3.5-8.1-7.8-8.1zm6.1 12.3l5.7 5.6s.8.9 0 1.7c-.8.9-1.7 0-1.7 0l-5.7-5.6 1.7-1.7z"/><path fill="#8C8C8C" d="M305.9 52c2.1 0 3.9 1.8 3.9 4.1 0 2.2-1.7 4.1-3.9 4.1-2.1 0-3.9-1.8-3.9-4.1s1.7-4.1 3.9-4.1m0-2c-3.2 0-5.9 2.7-5.9 6.1 0 3.4 2.6 6.1 5.9 6.1 3.2 0 5.9-2.7 5.9-6.1-.1-3.4-2.7-6.1-5.9-6.1z"/><path fill="#8C8C8C" d="M310.5 59.2l4.3 4.2s.6.7 0 1.2c-.6.7-1.3 0-1.3 0l-4.3-4.2 1.3-1.2z"/><path opacity=".4" d="M380 50c16.6 0 30 13.4 30 30s-13.4 30-30 30-30-13.4-30-30 13.4-30 30-30z"/><path fill="#FFF" d="M380 55.5c13.5 0 24.5 11 24.5 24.5s-11 24.6-24.5 24.6-24.5-11-24.5-24.6 11-24.5 24.5-24.5m0-3c-15.2 0-27.5 12.3-27.5 27.5s12.3 27.6 27.5 27.6 27.5-12.3 27.5-27.6-12.3-27.5-27.5-27.5z"/><path fill="#FFF" d="M395.7 73.7c-.3-.2-.7-.2-1-.1l-9.2 4c-.4.2-.7.6-.7 1v4.5c0 .4.3.8.7 1l9.2 4c.3.1.7.1 1-.1s.5-.5.5-.9V74.7c0-.4-.2-.7-.5-1zm-14.1.3h-15.8c-.6 0-1.1.5-1.1 1.1v11.7c0 .6.5 1.1 1.1 1.1h15.8c.6 0 1.1-.5 1.1-1.1V75.1c0-.6-.5-1.1-1.1-1.1z"/><path fill="#AAA" d="M208 20c-1.3 0-2.4-1.1-2.4-2.4V3.4c0-1.3 1.1-2.4 2.4-2.4 1.3 0 2.4 1.1 2.4 2.4v14.2c0 1.3-1.1 2.4-2.4 2.4zm5.6 0c-1.3 0-2.4-1.1-2.4-2.4V7.2c0-1.3 1.1-2.4 2.4-2.4 1.3 0 2.4 1.1 2.4 2.4v10.4c0 1.3-1.1 2.4-2.4 2.4zm-11.2 0c-1.3 0-2.4-1.1-2.4-2.4v-4.5c0-1.3 1.1-2.4 2.4-2.4 1.3 0 2.4 1.1 2.4 2.4v4.5c0 1.3-1.1 2.4-2.4 2.4z"/><path fill="#858585" d="M258 20c-1.3 0-2.4-1.1-2.4-2.4V3.4c0-1.3 1.1-2.4 2.4-2.4s2.4 1.1 2.4 2.4v14.2c0 1.3-1.1 2.4-2.4 2.4zm5.6 0c-1.3 0-2.4-1.1-2.4-2.4V7.2c0-1.3 1.1-2.4 2.4-2.4s2.4 1.1 2.4 2.4v10.4c0 1.3-1.1 2.4-2.4 2.4zm-11.2 0c-1.3 0-2.4-1.1-2.4-2.4v-4.5c0-1.3 1.1-2.4 2.4-2.4 1.3 0 2.4 1.1 2.4 2.4v4.5c0 1.3-1.1 2.4-2.4 2.4z"/><path fill="#AAA" d="M310.5 1c5.8 0 10.5 3.5 10.5 7.8s-4.7 7.8-10.5 7.8c-.4 0-.9 0-1.3-.1l-3.9 3.2c-.4.3-1 .1-1-.4v-4.2c-2.7-1.4-4.4-3.7-4.4-6.4.1-4.2 4.8-7.7 10.6-7.7z"/><path fill="#858585" d="M360.5 1c5.8 0 10.5 3.5 10.5 7.8s-4.7 7.8-10.5 7.8c-.4 0-.9 0-1.3-.1l-3.9 3.2c-.4.3-1 .1-1-.4v-4.2c-2.7-1.4-4.4-3.7-4.4-6.4.1-4.2 4.8-7.7 10.6-7.7z"/><path fill="#AAA" d="M123.3 15.6c-.5.2-1.2 0-1.4-.6l-5.8-13.6c-.2-.5 0-1.1.6-1.4.5-.2 1.2 0 1.4.6l5.8 13.6c.2.6 0 1.2-.6 1.4zm-7.9-13.4l5.4 12.8-7.3.8.2 1.3c.2 1.2-.7 2.2-1.9 2.4l-2.8.4c-1.2.2-2.2-.6-2.4-1.8l-.2-1.5-2.2.2c.1.3-1.3 2.8-2 1.1l-2.2-5.2c-.7-1.6 1.9-.9 2.1-.5l13.3-10zM112.1 16l-4.3.5.2 1.4c.1.4.4.7.8.6l2.8-.4c.4-.1.7-.4.6-.8l-.1-1.3z"/><path fill="#848484" d="M173.3 15.6c-.5.2-1.2 0-1.4-.6l-5.8-13.6c-.2-.5 0-1.1.6-1.4.5-.2 1.2 0 1.4.6l5.8 13.6c.2.6 0 1.2-.6 1.4zm-7.9-13.4l5.4 12.8-7.3.8.2 1.3c.1 1.2-.7 2.2-1.9 2.4l-2.8.4c-1.2.2-2.2-.6-2.4-1.8l-.2-1.5-2.2.2c.1.3-1.3 2.8-2 1.1l-2.2-5.2c-.7-1.6 1.9-.9 2.1-.5l13.3-10zM162.1 16l-4.3.5.2 1.4c.1.4.4.7.8.6l2.8-.4c.4-.1.7-.4.6-.8l-.1-1.3z"/><path fill="#E8302C" d="M271.5 101c-2.5 0-4.8 1.2-6.5 3.3-1.7-2.1-4-3.3-6.5-3.3-3.6 0-7.5 2.8-7.5 7.8 0 5.2 4.6 8.9 8 11.6 1 .8 2 1.6 3 2.3 1.2.9 1.8 1.4 2.5 2 .1.1.3.2.5.2s.4-.1.5-.2c.9-.9 1.6-1.5 3.8-3.1l1.7-1.3c2.8-2.1 8-6.1 8-11.6 0-5-3.9-7.7-7.5-7.7z"/><path opacity=".05" fill="none" stroke="#000" stroke-miterlimit="10" d="M321.7 100.5c-2.6 0-4.9 1.2-6.7 3.4-1.8-2.2-4.2-3.4-6.7-3.4-3.8 0-7.8 2.9-7.8 8.2 0 5.5 4.8 9.3 8.3 12.1 1.3 1.1 2.3 1.8 3.1 2.4 1.3 1 1.9 1.4 2.6 2.1.1.1.3.2.6.2.2 0 .4-.1.5-.2.9-.9 1.7-1.5 3.9-3.2l1.8-1.3c2.9-2.2 8.3-6.4 8.3-12.1-.1-5.4-4.1-8.2-7.9-8.2h0z"/><path fill="#FFF" d="M321.5 102c3.2 0 6.5 2.4 6.5 6.8 0 5-5 8.8-7.6 10.8l-1.7 1.3c-2 1.5-2.8 2.2-3.7 3-.6-.6-1.3-1.1-2.4-2-.8-.6-1.7-1.3-3-2.3-3.2-2.5-7.6-6-7.6-10.8 0-4.4 3.4-6.8 6.5-6.8 2.1 0 4.2 1 5.7 2.9l.8.9.8-.9c1.5-1.9 3.5-2.9 5.7-2.9m0-1c-2.5 0-4.8 1.2-6.5 3.3-1.7-2.1-4-3.3-6.5-3.3-3.6 0-7.5 2.8-7.5 7.8 0 5.2 4.6 8.9 8 11.6 1 .8 2 1.6 3 2.3 1.2.9 1.8 1.4 2.5 2 .1.1.3.2.5.2s.4-.1.5-.2c.9-.9 1.6-1.5 3.8-3.1l1.7-1.3c2.8-2.1 8-6.1 8-11.6 0-5-3.9-7.7-7.5-7.7z"/><path fill="#FFDA72" d="M456.5 54c1.4 0 2.5 1.1 2.5 2.5s-1.1 2.5-2.5 2.5-2.5-1.1-2.5-2.5 1.1-2.5 2.5-2.5z"/><path fill="#F0692A" d="M456.5 54c-1.4 0-2.5 1.1-2.5 2.5s1.1 2.5 2.5 2.5 2.5-1.1 2.5-2.5c.1-1.4-1.1-2.5-2.5-2.5zm0 3.8c-.7 0-1.3-.5-1.3-1.2s.5-1.3 1.2-1.3h.1c.7 0 1.2.6 1.2 1.3 0 .6-.5 1.1-1.2 1.2zm5.9-1.9h-1.5c-.4 0-.6.3-.6.6 0 .4.3.6.6.6h1.5c.4 0 .6-.3.6-.6 0-.4-.3-.6-.6-.6zm-9.6.6c0-.4-.3-.6-.6-.6h-1.5c-.4 0-.6.3-.6.6 0 .4.3.6.6.6h1.5c.3 0 .6-.2.6-.6zm3.7 3.7c-.4 0-.6.3-.6.6v1.5c0 .4.3.6.6.6.4 0 .6-.3.6-.6v-1.5c0-.3-.2-.6-.6-.6zm0-7.4c.4 0 .6-.3.6-.6v-1.5c0-.4-.3-.6-.6-.6-.4 0-.6.3-.6.6v1.5c0 .3.2.6.6.6zm3.6 6.3c-.3-.2-.7-.2-.9 0-.2.2-.2.6 0 .9l1 1c.2.3.7.3.9 0 .3-.2.3-.7 0-.9l-1-1zm-7.2-5.2c.2.2.7.3.9 0 .2-.2.2-.7 0-.9l-1-1c-.2-.3-.7-.3-.9 0-.3.2-.3.7 0 .9l1 1zm6.7.1c.2 0 .3-.1.5-.2l1-1c.3-.2.3-.7 0-.9-.2-.3-.7-.3-.9 0l-1 1c-.2.3-.2.7 0 .9.1.2.2.2.4.2zm-6.7 5.1l-1 1c-.3.2-.3.6 0 .9.1.1.3.2.5.2s.3-.1.5-.2l1-1c.3-.2.3-.7 0-.9s-.7-.2-1 0c.1 0 .1 0 0 0z"/><path fill="#FFF" d="M491 55.5c-1.9 0-3.5 1.6-3.5 3.5s1.6 3.5 3.5 3.5 3.5-1.6 3.5-3.5c.1-1.9-1.5-3.5-3.5-3.5zm0 5.2c-1 0-1.7-.8-1.7-1.8s.8-1.7 1.8-1.7 1.7.8 1.7 1.8-.8 1.7-1.8 1.7zm8.1-2.6h-2c-.5 0-.9.4-.9.9s.4.9.9.9h2c.5 0 .9-.4.9-.9s-.4-.9-.9-.9zm-13.3.9c0-.5-.4-.9-.9-.9h-2c-.5 0-.9.4-.9.9s.4.9.9.9h2c.5 0 .9-.4.9-.9zm5.2 5.2c-.5 0-.9.4-.9.9v2c0 .5.4.9.9.8.5 0 .8-.4.8-.8v-2c.1-.5-.3-.9-.8-.9zm0-10.4c.5 0 .9-.4.9-.9v-2c0-.5-.4-.9-.9-.9s-.9.4-.9.9v2c0 .5.4.9.9.9zm4.9 8.9c-.3-.3-.9-.3-1.3 0-.3.3-.3.9 0 1.3l1.4 1.4c.4.3.9.3 1.3 0 .3-.3.3-.9 0-1.2l-1.4-1.5zm-9.8-7.4c.3.3.9.3 1.2 0 .3-.3.3-.9 0-1.3l-1.4-1.4c-.3-.3-.9-.3-1.3 0-.3.3-.3.9 0 1.3l1.5 1.4zm9.2.3c.2 0 .5-.1.6-.3l1.4-1.4c.3-.3.3-.9 0-1.3-.3-.3-.9-.3-1.3 0l-1.4 1.4c-.3.3-.4.9 0 1.3.2.2.5.3.7.3zm-9.2 7.1l-1.4 1.4c-.3.3-.4.9 0 1.3.2.2.4.3.6.3s.5-.1.6-.3l1.4-1.4c.4-.3.4-.9 0-1.3s-.8-.4-1.2 0c0-.1 0 0 0 0z"/><path fill="#BBB" d="M456.6 102c2.6 0 4.6 2.2 4.6 4.9s-2.1 4.9-4.6 4.9-4.6-2.2-4.6-4.9 2.1-4.9 4.6-4.9m0-2c-3.7 0-6.6 3.1-6.6 6.9s3 6.9 6.6 6.9 6.6-3.1 6.6-6.9c.1-3.8-2.9-6.9-6.6-6.9zm5.3 10.5l4.9 4.8s.7.8 0 1.4c-.7.8-1.4 0-1.4 0l-4.9-4.8 1.4-1.4z"/><path fill="#FFF" d="M489.6 102c2.6 0 4.6 2.2 4.6 4.9s-2.1 4.9-4.6 4.9-4.6-2.2-4.6-4.9 2.1-4.9 4.6-4.9m0-2c-3.7 0-6.6 3.1-6.6 6.9s3 6.9 6.6 6.9 6.6-3.1 6.6-6.9c.1-3.8-2.9-6.9-6.6-6.9zm5.3 10.5l4.9 4.8s.7.8 0 1.4c-.7.8-1.4 0-1.4 0l-4.9-4.8 1.4-1.4z"/><g fill="#BABABB"><path d="M459.5 125.1l1.3 1.2c.2.2.2.5 0 .6l-7.8 7.8c-.2.2-.5.2-.7 0l-1.3-1.2c-.2-.2-.2-.4 0-.6l7.8-7.8c.3-.1.6-.1.7 0z"/><path d="M460.9 141.6l-1.3 1.2c-.2.2-.5.2-.7 0l-8.8-8.6c-.2-.2-.2-.4 0-.6l1.3-1.2c.2-.2.5-.2.7 0l8.8 8.6c.1.2.1.4 0 .6z"/></g><path fill="#FFF" d="M.5 150.5h14v14H.5v-14z"/><path fill="#CCC" d="M14 151v13H1v-13h13m1-1H0v15h15v-15z"/><path fill="#FFF" d="M.5 175.5h19v19H.5v-19z"/><path fill="#CCC" d="M19 176v18H1v-18h18m1-1H0v20h20v-20z"/><path fill="#515151" d="M50 150h15v15H50v-15z"/><path fill="#FFF" d="M62.8 156l-5.1 4.9-1 .9c-.1.1-.3.2-.5.2s-.4-.1-.5-.2l-1-.9-2.6-2.4c-.3-.2-.3-.6 0-.9l1-.9c.3-.3.7-.3 1 0l2.1 2 4.7-4.4c.3-.3.7-.3 1 0l1 .9c.1.1.2.3.2.5s-.2.2-.3.3z"/><path fill="#515151" d="M50 175h20v20H50v-20z"/><path fill="#FFF" d="M67.1 183l-6.8 6.5-1.3 1.2c-.2.2-.4.3-.6.2-.2 0-.5-.1-.6-.2l-1.3-1.2-3.4-3.2c-.2-.2-.3-.4-.3-.6 0-.2.1-.4.3-.6l1.3-1.2c.2-.2.4-.3.6-.3.2 0 .5.1.6.2l2.8 2.6 6.2-5.9c.2-.2.4-.3.6-.2.2 0 .5.1.6.2l1.3 1.2c.2.2.3.4.3.6-.1.3-.2.6-.3.7z"/><circle fill="#FFF" cx="108" cy="158" r="7.5"/><path fill="#B0AFB0" d="M108 151c3.9 0 7 3.1 7 7s-3.1 7-7 7-7-3.1-7-7 3.1-7 7-7m0-1c-4.4 0-8 3.6-8 8s3.6 8 8 8 8-3.6 8-8-3.6-8-8-8z"/><path fill="#1DBF73" d="M108 154c2.2 0 4 1.8 4 4s-1.8 4-4 4-4-1.8-4-4 1.8-4 4-4z"/><path fill="#FFF" d="M128 167.5c1.7 0 3 1.3 3 3s-1.3 3-3 3-3-1.3-3-3 1.3-3 3-3z"/><circle fill="#FFF" cx="133" cy="158" r="7.5"/><path fill="#B0AFB0" d="M133 151c3.9 0 7 3.1 7 7s-3.1 7-7 7-7-3.1-7-7 3.1-7 7-7m0-1c-4.4 0-8 3.6-8 8s3.6 8 8 8 8-3.6 8-8-3.6-8-8-8z"/><circle fill="#FFF" cx="183" cy="158" r="7.5"/><path fill="silver" d="M183 151c3.9 0 7 3.1 7 7s-3.1 7-7 7-7-3.1-7-7 3.1-7 7-7m0-1c-4.4 0-8 3.6-8 8s3.6 8 8 8 8-3.6 8-8-3.6-8-8-8z"/><g fill="#515151"><circle cx="158" cy="158" r="7.5"/><path d="M158 151c3.9 0 7 3.1 7 7s-3.1 7-7 7-7-3.1-7-7 3.1-7 7-7m0-1c-4.4 0-8 3.6-8 8s3.6 8 8 8 8-3.6 8-8-3.6-8-8-8z"/></g><path fill="#FFF" d="M158 155c1.7 0 3 1.3 3 3s-1.3 3-3 3-3-1.3-3-3 1.3-3 3-3z"/><path fill="#7D8082" d="M213 159l-6.3-6.5v3.9H200v5.9h6.7v3.2l6.3-6.5zm5.6-9H213v3.5h5.6v11H213v3.5h9v-18h-3.4zm50.1 0h-6.3c-.7 0-1.3.7-1.3 1.5v5c0 .8.6 1.5 1.3 1.5h6.3c.7 0 1.3-.7 1.3-1.5v-5c0-.8-.6-1.5-1.3-1.5zm-11 0h-6.3c-.7 0-1.3.7-1.3 1.5v5c0 .8.6 1.5 1.3 1.5h6.3c.7 0 1.3-.7 1.3-1.5v-5c0-.8-.6-1.5-1.3-1.5zm11 10h-6.3c-.7 0-1.3.6-1.3 1.4v5.2c0 .7.6 1.4 1.3 1.4h6.3c.7 0 1.3-.6 1.3-1.4v-5.2c0-.8-.6-1.4-1.3-1.4zm-11 0h-6.3c-.7 0-1.3.6-1.3 1.4v5.2c0 .7.6 1.4 1.3 1.4h6.3c.7 0 1.3-.6 1.3-1.4v-5.2c0-.8-.6-1.4-1.3-1.4z"/><path fill="#858585" d="M458.5 16c-1 0-1.8.8-1.8 1.8 0 .9.8 1.7 1.7 1.7 1 0 1.8-.8 1.8-1.8-.1-.9-.9-1.6-1.7-1.7zm6.8 0c-1 0-1.8.8-1.8 1.8 0 .9.8 1.7 1.7 1.7 1 0 1.8-.8 1.8-1.8-.1-.9-.8-1.6-1.7-1.7zm3.5-10.8h-13.6l-.5-2.9c-.1-.4-.5-.7-.9-.8h-3.1c-.5 0-.7.4-.7.9s.2.9.8.9h2.1l2.3 10.8c.1.6.6.9 1.1.9h11.2c.6 0 1-.4 1.1-1l1.4-7.3c.1-.9-.4-1.6-1.2-1.5z"/><path fill="#AAA" d="M408.5 16c-1 0-1.8.8-1.8 1.8 0 .9.8 1.7 1.7 1.7 1 0 1.8-.8 1.8-1.8-.1-.9-.9-1.6-1.7-1.7zm6.8 0c-1 0-1.8.8-1.8 1.8 0 .9.8 1.7 1.7 1.7 1 0 1.8-.8 1.8-1.8-.1-.9-.8-1.6-1.7-1.7zm3.5-10.8h-13.6l-.5-2.9c-.1-.4-.5-.7-.9-.8h-3.1c-.5 0-.7.4-.7.9s.2.9.8.9h2.1l2.3 10.8c.1.6.6.9 1.1.9h11.2c.6 0 1-.4 1.1-1l1.4-7.3c.1-.9-.4-1.6-1.2-1.5z"/><path fill="#C7C7C7" d="M405.9 40.5c-.7 0-1.3.6-1.3 1.3s.6 1.2 1.2 1.2c.7 0 1.3-.6 1.3-1.3s-.6-1.2-1.2-1.2zm4.8 0c-.7 0-1.3.6-1.3 1.3s.6 1.2 1.2 1.2c.7 0 1.3-.6 1.3-1.3-.1-.7-.6-1.2-1.2-1.2zm2.5-7.8h-9.5l-.3-2.1c-.1-.3-.3-.5-.6-.6h-2.2c-.3 0-.5.3-.5.7s.1.7.6.7h1.5l1.6 7.8c.1.4.4.7.8.7h7.8c.4 0 .7-.3.8-.7l1-5.3c-.1-.8-.5-1.3-1-1.2z"/><path fill="#FFF" d="M312.7 171.8c-1.5 0-2.7 1.2-2.7 2.7 0 1.4 1.2 2.6 2.5 2.6 1.5 0 2.7-1.2 2.7-2.7-.1-1.5-1.3-2.5-2.5-2.6zm10.2 0c-1.5 0-2.7 1.2-2.7 2.7 0 1.4 1.2 2.6 2.5 2.6 1.5 0 2.7-1.2 2.7-2.7-.1-1.4-1.1-2.5-2.5-2.6zm5.3-16.2h-20.4l-.8-4.4c-.1-.6-.8-1.1-1.4-1.2H301c-.8 0-1 .6-1 1.4s.3 1.4 1.2 1.4h3.1l3.4 16.2c.1.9.9 1.4 1.6 1.4h16.8c.9 0 1.5-.6 1.6-1.5l2.1-10.9c.3-1.5-.4-2.6-1.6-2.4zm32.4 12.1c-1.2 0-2.2 1-2.2 2.2 0 1.1 1 2.1 2.1 2.1 1.2 0 2.2-1 2.2-2.2-.1-1.1-1.1-2-2.1-2.1zm8.5 0c-1.2 0-2.2 1-2.2 2.2 0 1.1 1 2.1 2.1 2.1 1.2 0 2.2-1 2.2-2.2-.1-1.1-1-2-2.1-2.1zm4.4-13.2h-17l-.6-3.5c-.1-.5-.6-.9-1.1-1h-3.9c-.6 0-.9.5-.9 1.1s.2 1.1 1 1.1h2.6l2.9 13.2c.1.7.8 1.1 1.4 1.1h14c.8 0 1.2-.5 1.4-1.2l1.8-8.9c0-1.1-.6-2-1.6-1.9z"/><ellipse fill="#848484" cx="112.5" cy="185.2" rx="12.5" ry="12"/><path fill="#FFF" d="M104.8 185c0-2.5 2.3-4.6 4.8-4.5 1.2-.1 2.3.5 3.2 1.2-.4.4-.8.9-1.2 1.3-1.1-.8-2.6-1-3.7-.1-1.6 1.1-1.6 3.6-.1 4.8 1.5 1.3 4.2.7 4.6-1.4h-2.7v-1.6h4.6c.1 1.3-.1 2.6-.9 3.7-1.2 1.7-3.6 2.2-5.4 1.4-2-.8-3.3-2.8-3.2-4.8zm12.3-1.8h1.4v1.4h1.4v1.4h-1.4v1.4h-1.4V186h-1.4v-1.4h1.4v-1.4z"/><ellipse fill="#1DBF73" cx="162.5" cy="185.2" rx="12.5" ry="12"/><path fill="#FFF" d="M154.8 185c0-2.5 2.3-4.6 4.8-4.5 1.2-.1 2.3.5 3.2 1.2-.4.4-.8.9-1.2 1.3-1.1-.8-2.6-1-3.7-.1-1.6 1.1-1.6 3.6-.1 4.8 1.5 1.3 4.2.7 4.6-1.4h-2.7v-1.6h4.6c.1 1.3-.1 2.6-.9 3.7-1.2 1.7-3.6 2.2-5.4 1.4-2.1-.8-3.4-2.8-3.2-4.8zm12.3-1.8h1.4v1.4h1.4v1.4h-1.4v1.4h-1.4V186h-1.4v-1.4h1.4v-1.4z"/><circle fill="#FFF" cx="303" cy="132" r="7.5"/><circle fill="#FFF" cx="418" cy="183" r="7.5"/><path fill="#B0AFB0" d="M418 176c3.9 0 7 3.1 7 7s-3.1 7-7 7-7-3.1-7-7 3.1-7 7-7m0-1c-4.4 0-8 3.6-8 8s3.6 8 8 8 8-3.6 8-8-3.6-8-8-8z"/><path fill="#222" d="M414.2 184.1c-.6-2.1.6-4.3 2.7-5 2.1-.6 4.3.6 5 2.7s-.6 4.3-2.7 5c-2.2.7-4.4-.6-5-2.7z"/></svg>