
<svg xmlns="http://www.w3.org/2000/svg" width="20" height="60" viewBox="0 0 20 60"><style>.st0{fill:#ffc100}</style><path class="st0" d="M20 7.9c0-.4-.4-.5-.7-.6l-6-.9L10.6 1c-.1-.2-.3-.5-.6-.5s-.5.3-.6.5L6.7 6.4l-6 .9c-.3.1-.7.2-.7.6 0 .2.2.4.3.6l4.4 4.2-1 6v.2c0 .3.2.6.5.6.2 0 .3-.1.5-.1l5.4-2.8 5.4 2.8c.1.1.3.1.5.1.3 0 .5-.3.5-.6v-.2l-1-6 4.4-4.2c-.1-.2.1-.4.1-.6zm-6.3 24.2l.9 5-4.6-2.3-4.5 2.4.9-5-3.7-3.6 5.1-.7 2.3-4.6 2.3 4.6 5.1.7-3.8 3.5zm6.3-4.2c0-.4-.4-.5-.7-.6l-6-.9-2.7-5.4c-.1-.2-.3-.5-.6-.5s-.5.3-.6.5l-2.7 5.4-6 .9c-.3 0-.7.2-.7.6 0 .2.2.4.3.6l4.4 4.2-1 6v.2c0 .3.2.6.5.6.2 0 .3-.1.5-.1l5.4-2.8 5.4 2.8c.1.1.3.1.5.1.3 0 .5-.3.5-.6v-.2l-1-6 4.4-4.2c-.1-.2.1-.4.1-.6zm0 20c0-.4-.4-.5-.7-.6l-6-.9-2.7-5.4c-.1-.2-.3-.5-.6-.5s-.5.3-.6.5l-2.7 5.4-6 .9c-.3 0-.7.2-.7.6 0 .2.2.4.3.6l4.4 4.2-1 6v.2c0 .3.2.6.5.6.2 0 .3-.1.5-.1l5.4-2.8 5.4 2.8c.1.1.3.1.5.1.3 0 .5-.3.5-.6v-.2l-1-6 4.4-4.2c-.1-.2.1-.4.1-.6zm-6.3 4.2l.9 5-4.6-2.3V43.3l2.2 4.5 5.1.7-3.6 3.6z"/></svg>